<?xml version="1.0" standalone="no"?>
<!DOCTYPE svg PUBLIC "-//W3C//DTD SVG 20010904//EN"
 "http://www.w3.org/TR/2001/REC-SVG-20010904/DTD/svg10.dtd">
<svg version="1.0" xmlns="http://www.w3.org/2000/svg"
 width="500.000000pt" height="500.000000pt" viewBox="0 0 500.000000 500.000000"
 preserveAspectRatio="xMidYMid meet">

<g transform="translate(0.000000,500.000000) scale(0.100000,-0.100000)"
fill="#000000" stroke="none">
<path d="M1360 3560 c0 -5 15 -10 34 -10 19 0 44 -9 57 -19 24 -19 24 -21 27
-263 l4 -244 -81 -47 c-150 -87 -275 -226 -350 -389 -60 -129 -75 -201 -75
-363 0 -162 15 -234 75 -363 72 -156 175 -274 323 -371 141 -92 280 -131 466
-131 158 0 246 21 385 89 208 103 476 359 660 629 40 60 53 72 70 67 175 -52
346 -44 467 22 126 69 228 247 228 398 0 61 -17 38 -29 -40 -37 -225 -195
-342 -425 -314 -64 8 -176 49 -176 65 0 16 294 446 352 513 49 58 80 84 138
115 l75 41 115 0 c111 0 117 -1 179 -33 158 -83 246 -255 219 -427 -33 -214
-225 -361 -445 -340 -82 8 -104 -9 -27 -21 288 -43 544 209 496 486 -23 126
-84 223 -184 290 -76 50 -149 72 -243 72 -205 -1 -291 -74 -561 -479 -152
-228 -140 -221 -213 -136 -176 206 -200 633 -47 855 84 124 206 185 354 176
192 -11 280 -115 307 -360 4 -32 11 -58 16 -58 5 0 9 91 9 220 0 171 -3 220
-13 220 -7 0 -17 -10 -22 -22 -15 -34 -51 -33 -141 3 -65 27 -96 33 -176 37
-189 8 -324 -42 -448 -167 -124 -124 -184 -269 -197 -471 -14 -241 89 -464
270 -581 32 -21 63 -39 70 -42 27 -9 -161 -255 -313 -407 -185 -185 -376 -313
-535 -356 -81 -21 -278 -30 -357 -15 -166 32 -319 108 -439 218 -211 196 -309
504 -251 787 35 165 127 331 245 443 52 49 200 153 218 153 10 0 12 -492 3
-528 -7 -26 -51 -52 -89 -52 -14 0 -25 -5 -25 -10 0 -7 149 -9 442 -8 l442 3
53 210 c28 116 52 221 52 234 1 33 -13 16 -29 -34 -7 -22 -32 -81 -57 -132
-94 -195 -232 -274 -455 -260 -83 5 -125 17 -140 41 -4 6 -8 131 -8 279 l0
267 56 0 c48 0 59 -4 76 -25 24 -31 64 -33 94 -4 27 26 64 20 99 -15 25 -26
45 -102 45 -176 0 -28 5 -50 10 -50 6 0 10 97 10 270 0 173 -4 270 -10 270 -5
0 -10 -18 -10 -40 0 -79 -19 -137 -56 -170 -19 -16 -39 -30 -45 -30 -6 0 -24
14 -40 31 l-29 32 -100 -5 -100 -5 2 210 3 210 28 21 c26 19 41 21 205 21 166
0 180 -1 225 -24 55 -27 99 -81 125 -153 9 -26 22 -48 28 -48 8 0 -3 46 -29
125 l-42 125 -422 0 c-275 0 -423 -3 -423 -10z m418 -515 c-10 -22 -17 -25
-65 -25 -46 0 -54 3 -51 17 3 18 38 30 95 32 31 1 32 0 21 -24z"/>
<path d="M1460 1920 l0 -50 33 1 c31 2 31 2 4 6 -35 5 -33 34 3 44 l25 7 -27
1 c-17 1 -28 7 -28 15 0 8 12 17 28 19 25 4 25 4 -5 6 l-33 1 0 -50z"/>
<path d="M1651 1918 c1 -29 4 -43 6 -30 3 13 12 22 23 22 25 0 43 33 28 48 -7
7 -22 12 -35 12 -21 0 -23 -4 -22 -52z m49 22 c0 -13 -7 -20 -20 -20 -13 0
-20 7 -20 20 0 13 7 20 20 20 13 0 20 -7 20 -20z"/>
<path d="M1843 1920 c0 -30 2 -43 4 -27 2 15 2 39 0 55 -2 15 -4 2 -4 -28z"/>
<path d="M2420 1950 c-15 -29 -5 -67 20 -75 23 -7 60 2 60 16 0 5 -9 4 -20 -3
-26 -17 -55 0 -55 32 0 32 29 49 56 32 18 -11 20 -11 17 0 -3 7 -19 14 -36 16
-23 2 -33 -2 -42 -18z"/>
<path d="M2621 1942 c-1 -42 14 -72 37 -72 29 0 42 21 40 65 l-1 40 -6 -45
c-5 -37 -10 -46 -28 -48 -23 -3 -26 3 -36 68 -3 20 -5 18 -6 -8z"/>
<path d="M2831 1918 c1 -39 3 -46 8 -28 l7 25 15 -22 c7 -13 18 -23 23 -23 4
0 3 6 -3 14 -9 11 -9 19 0 34 17 27 5 52 -26 52 -24 0 -25 -3 -24 -52z m44 22
c0 -8 -8 -16 -17 -18 -13 -2 -18 3 -18 18 0 15 5 20 18 18 9 -2 17 -10 17 -18z"/>
<path d="M3013 1920 c0 -30 2 -43 4 -27 2 15 2 39 0 55 -2 15 -4 2 -4 -28z"/>
<path d="M3162 1958 c-7 -7 -12 -24 -12 -38 0 -14 5 -31 12 -38 28 -28 88 -2
88 38 0 40 -60 66 -88 38z m68 -13 c26 -32 -13 -81 -47 -59 -35 22 -23 74 17
74 10 0 23 -7 30 -15z"/>
<path d="M3371 1942 c-1 -42 14 -72 37 -72 29 0 42 21 40 65 l-1 40 -6 -45
c-5 -37 -10 -46 -28 -48 -23 -3 -26 3 -36 68 -3 20 -5 18 -6 -8z"/>
<path d="M3577 1963 c-15 -15 -5 -35 23 -44 43 -15 41 -44 -2 -35 -24 5 -29 3
-21 -5 17 -17 58 -7 61 16 2 15 -6 24 -29 32 -36 14 -30 38 8 28 16 -4 22 -2
18 5 -7 11 -48 14 -58 3z"/>
</g>
</svg>
